<svg width="1em" height="1em" viewBox="0 0 16 16" class="bi bi-fan" fill="currentColor" xmlns="http://www.w3.org/2000/svg">
<path fill-rule="evenodd" clip-rule="evenodd" d="M8 16C12.4183 16 16 12.4183 16 8C16 3.58172 12.4183 4.90036e-09 8 0C3.58172 -4.90036e-09 4.90036e-09 3.58172 0 8C-4.90036e-09 12.4183 3.58172 16 8 16ZM8 15C11.866 15 15 11.866 15 8C15 4.13401 11.866 1 8 1C4.13401 1 1 4.13401 1 8C1 11.866 4.13401 15 8 15ZM9.28803 7.82317C10.3965 7.81941 11.8188 7.89553 12.464 8.26804C13.5999 8.92387 13.7483 10.0435 13.196 11.0001C12.6437 11.9567 11.5999 12.388 10.464 11.7321C9.81877 11.3596 9.04171 10.166 8.49073 9.20412C8.3393 9.26591 8.1736 9.29995 7.99995 9.29995C7.82623 9.29995 7.66047 9.26588 7.50898 9.20405C6.958 10.1659 6.18098 11.3595 5.5358 11.732C4.39985 12.3878 3.35603 11.9565 2.80375 10.9999C2.25146 10.0433 2.39985 8.9237 3.5358 8.26786C4.18103 7.89534 5.60341 7.81923 6.71189 7.82299C6.7588 7.47832 6.9408 7.17662 7.2028 6.97296C6.6453 6.01486 6.00004 4.74501 6.00004 3.99997C6.00004 2.68829 6.89547 1.99997 8.00004 1.99997C9.1046 1.99997 10 2.68829 10 3.99997C10 4.74504 9.35473 6.01494 8.79722 6.97305C9.0592 7.17674 9.24117 7.47848 9.28803 7.82317ZM7.63653 7.46096C7.74026 7.39089 7.86531 7.34998 7.99991 7.34998C8.17847 7.34998 8.3402 7.42197 8.45768 7.53851C8.45769 7.5385 8.4577 7.53848 8.4577 7.53847C8.5388 7.61892 8.59881 7.7206 8.6287 7.83447C8.62869 7.83447 8.62867 7.83448 8.62865 7.83448C8.64253 7.88732 8.64991 7.94278 8.64991 7.99998C8.64991 8.19628 8.56289 8.37227 8.42532 8.49145C8.37422 8.53572 8.31614 8.57215 8.25296 8.59887C8.1752 8.63176 8.0897 8.64995 7.99995 8.64995C7.64097 8.64995 7.34995 8.35894 7.34995 7.99995C7.34995 7.80345 7.43715 7.62731 7.57496 7.50812C7.5945 7.49122 7.61506 7.47547 7.63653 7.46096ZM8.03051 6.7003C8.20823 6.40863 9.09991 4.90032 9.09991 3.99997C9.09991 3.24058 8.60743 2.74997 7.99991 2.74997C7.3924 2.74997 6.89991 3.24058 6.89991 3.99997C6.89991 4.90032 7.7916 6.40862 7.96932 6.7003C7.9795 6.70007 7.98971 6.69995 7.99995 6.69995C8.01017 6.69995 8.02035 6.70007 8.03051 6.7003ZM6.85889 8.62335C6.86874 8.64132 6.87899 8.65904 6.88964 8.67648C6.72572 8.97655 5.86547 10.5025 5.08586 10.9526C4.42821 11.3323 3.75709 11.1511 3.45333 10.625C3.14957 10.0989 3.32821 9.42708 3.98586 9.04739C4.76542 8.59731 6.5169 8.61528 6.85889 8.62335ZM9.11027 8.67648C9.27423 8.97662 10.1344 10.5025 10.914 10.9526C11.5717 11.3323 12.2428 11.1511 12.5466 10.625C12.8503 10.0989 12.6717 9.42705 12.014 9.04735C11.2345 8.59729 9.48311 8.61524 9.14103 8.62331C9.13118 8.6413 9.12092 8.65902 9.11027 8.67648Z"/>
</svg>
